PathFileType	4	(X/Y/Z)	Patient4_TMGait_0pt3_03_left_13.trc.trc
DataRate	CameraRate	NumFrames	NumMarkers	Units	OrigDataRate	OrigDataStartFrame	OrigNumFrames
56.000000000000	56.000000000000	4	33	mm	56.000000000000	89	       141
Frame#	Time	Sacral			L.Shoulder			Chest			R.Shoulder			Neck			R.ASIS			L.ASIS			R.Thigh.Superior			R.Thigh.Lateral			R.Thigh.Inferior			R.Patella			L.Thigh.Superior			L.Thigh.Lateral			L.Thigh.Inferior			L.Patella			L.Shank.Superior			L.Shank.Lateral			L.Shank.Inferior			R.Shank.Superior			R.Shank.Lateral			R.Shank.Inferior			R.Heel			R.Midfoot.Superior			R.Midfoot.Lateral			R.Toe			L.Heel			L.Midfoot.Lateral			L.Midfoot.Superior			L.Toe			L.Elbow			L.Wrist			R.Elbow			R.Wrist			
		X1	Y1	Z1	X2	Y2	Z2	X3	Y3	Z3	X4	Y4	Z4	X5	Y5	Z5	X6	Y6	Z6	X7	Y7	Z7	X8	Y8	Z8	X9	Y9	Z9	X10	Y10	Z10	X11	Y11	Z11	X12	Y12	Z12	X13	Y13	Z13	X14	Y14	Z14	X15	Y15	Z15	X16	Y16	Z16	X17	Y17	Z17	X18	Y18	Z18	X19	Y19	Z19	X20	Y20	Z20	X21	Y21	Z21	X22	Y22	Z22	X23	Y23	Z23	X24	Y24	Z24	X25	Y25	Z25	X26	Y26	Z26	X27	Y27	Z27	X28	Y28	Z28	X29	Y29	Z29	X30	Y30	Z30	X31	Y31	Z31	X32	Y32	Z32	X33	Y33	Z33	

89	25.261428571429	733.426388360535	1009.756442055991	470.902067539679	958.721921506831	1431.250963527469	322.003771674894	1027.341017999237	1357.610709677395	497.809172313335	919.006077236084	1436.445009105379	654.509532289760	914.072321562087	1492.800592915005	476.609151725904	945.336238433139	938.945705632282	617.907647939074	964.307104739277	956.137501163228	343.926486890414	1001.765795742007	747.403118475875	586.674697116837	926.634779639632	633.684546350337	644.392311351953	1011.352412885827	586.731134994247	567.147152293938	1018.575239449411	499.626350933254	575.601826049151	968.378026631218	728.126439782029	363.317063197460	860.023468661023	629.723563404265	292.860196849319	926.816701333665	536.119577805814	352.799004130158	913.771088924610	462.705125530470	355.157785311912	863.913846994220	402.802175588900	345.668225959473	743.189490403464	322.097831915655	292.312872397823	762.000131361098	195.424781646425	352.764203933692	994.431989528634	408.973317456441	584.401242789606	927.100422065468	303.985625946213	649.335924487371	973.842891191581	209.180777556582	588.507799336553	845.165160588063	42.482131731085	566.526507535045	1017.420766874208	97.524307011552	594.119679796026	932.139965646522	36.824039108709	637.125494594349	1138.714595397348	48.620991892607	615.097250055465	601.089316113986	65.649510404806	391.124002633486	671.328741826546	50.260826041785	309.806504404969	763.469381846575	100.326885345299	332.612634858679	881.083093795988	37.129088345506	299.762582689866	1026.659663229875	1103.352512259071	173.717914085295	1275.097710587630	1028.287950312235	188.461992190557	784.434831265292	1112.268013250560	751.796345572755	809.398213914354	853.056170470857	781.212771250118	
90	25.279285714286	734.820293046648	1010.111456693876	476.548410736167	957.807554329103	1432.694322687705	327.038406542753	1028.062623808367	1358.503352287600	501.995226500252	920.818594234226	1436.467169601429	659.803360452514	914.366283377251	1493.584301350726	482.134655340498	948.097198819870	939.497232129287	621.619237925616	964.723496948204	957.225332566772	347.641196318780	1002.830373727298	746.718248197511	590.084043772256	926.724149800762	633.571394084840	647.340636523346	1010.754436241783	586.060615373157	569.676672930869	1017.330730121207	498.825590644180	577.454456560783	972.199272209318	729.709217565338	366.143591518756	865.817404958123	629.805568242134	295.740794071583	934.967949780600	536.713179705884	354.833444970524	922.512835067032	461.929040370906	356.169684621344	870.294446227048	402.839980790151	346.997557219497	747.022449354141	326.007414206601	293.765511027354	762.729948543094	198.389542453802	352.836064324860	992.347396110756	408.403936487438	585.858687628310	924.516551386964	303.660356662992	650.586962695322	969.973070339997	208.727520807140	588.974640757920	840.038373496965	42.425132573715	566.729710730971	1012.265205460931	97.460670841049	594.309238982549	927.029992027766	36.801720179851	637.287483318797	1133.655850981968	48.435013106436	615.282551286180	598.312307793118	73.850870304216	390.810354680610	667.784151587498	55.459824190581	309.630065780531	761.577828680949	102.147984462466	332.051347075831	876.212258459370	36.537922387612	299.766632653092	1021.774506667402	1103.589083091382	178.508536656183	1266.989750616168	1017.579010148837	193.414350326491	790.237795797882	1111.219265055667	759.730358061387	821.907438052427	852.947872110936	790.700066651537	
91	25.297142857143	735.934181542503	1010.335808746107	482.100415353365	956.675373676620	1433.918325474635	331.786207382109	1028.670881694229	1359.196307721355	505.847727331642	922.699304622053	1436.373443399560	664.816363817321	914.600622673145	1494.207773236506	487.393419359190	950.572221888295	939.944810609766	625.214150268247	964.867209629628	958.110258699301	351.246342564296	1003.542029777460	745.902115560091	593.442099462578	926.476759586107	633.314312587101	650.194949150735	1009.809266732205	585.304456389225	572.097637498626	1015.810060303941	497.969017340042	579.198611631392	976.619818952491	731.484125294504	369.088615926798	872.851753666220	629.721052500740	298.620444672876	944.612077666777	537.430898627609	357.052883047107	932.841737414184	461.186777247860	357.331236048243	878.183450002181	402.850498976367	348.413851786262	752.356630258693	330.289521281212	295.208250749142	764.483716845895	201.831785120112	352.921391319802	990.015954203408	407.801506603855	587.214497856045	921.764573295330	303.271204169960	651.718028480435	966.002280890136	208.279154769003	589.371974995430	834.904295561120	42.391979530544	566.892594241659	1007.109227525465	97.419447884880	594.494340062222	921.916656662293	36.794587596611	637.403716919587	1128.587037304207	48.216949319804	615.454348294330	596.311654524279	83.517913041866	390.461750496675	664.772193905756	61.826525349115	309.413121554550	760.303351477310	104.437717591527	331.516802565922	871.339442865629	35.847376621326	299.812470634829	1016.567384609139	1103.438891037471	183.451312823424	1257.704840932187	1005.593858890244	198.177292444098	796.448266498396	1110.147686079544	767.773424400958	835.397712981434	853.055068750980	800.007341958276	
92	25.315000000000	736.764251165518	1010.376749275155	487.539987296380	955.341429426531	1434.853554839416	336.208104731270	1029.146944144653	1359.650146438133	509.350765023615	924.593351387810	1436.134590848193	669.506338099403	914.762176120636	1494.625776036851	492.333024802872	952.766957854916	940.259787998765	628.693066463440	964.748512347845	958.751640045870	354.737635644732	1004.046640382767	745.021845183628	596.641429745445	926.153194930053	632.915736893387	652.917433318628	1008.758653402713	584.496034207780	574.334164648424	1014.270406227201	497.035484091125	580.797259354195	981.523317783951	733.442091348307	372.210221885803	880.984580050296	629.537479626949	301.509247278669	955.508891297592	538.338373874973	359.519469351029	944.523827719299	460.579840279591	358.718412694844	887.417686053138	402.901915771444	349.954208535204	759.092284840614	334.957136711224	296.669667733995	767.236329864832	205.788578330455	353.062214775381	987.645213151057	407.132104578353	588.437840438864	919.007477886628	302.821080980596	652.729188754456	962.011127540496	207.805316073508	589.681732626771	829.732187702033	42.392794462611	567.014088449824	1001.939564137278	97.374240445683	594.657828446298	916.766290038520	36.804808757359	637.479440647175	1123.487022762795	47.924921489402	615.610473918149	595.187607367180	94.646089639824	390.113938807884	662.380822570182	69.422902638518	309.186560123951	759.662105639529	107.270123414087	331.058269461553	866.470074242508	35.049187292197	299.905049897373	1011.033263747794	1102.805019211522	188.574164333868	1247.100589762671	992.396244032435	202.709421434241	803.085564588936	1109.003588956867	775.856565902551	849.886537852229	853.384299823127	809.046836186200	
